<svg width="77" height="120" xmlns="http://www.w3.org/2000/svg">
  <g fill-rule="nonzero" fill="#139FF0">
    <path fill-opacity=".3" d="M30.258 55.314l-11.466 16.87h3.718l9.607-14.134zM48.851 45.941L31.847 72.184h3.718L50.71 48.81zM18.173 40.317a3.735 3.735 0 0 1 2.789-3.616 3.667 3.667 0 0 0-.93-.133c-2.054 0-3.719 1.679-3.719 3.75 0 2.07 1.665 3.748 3.719 3.748.323 0 .63-.054.93-.132a3.735 3.735 0 0 1-2.79-3.617z"/>
    <path d="M21.891 40.317a3.735 3.735 0 0 1-2.789 3.617c.3.078.607.132.93.132 2.054 0 3.719-1.678 3.719-3.749 0-2.07-1.665-3.749-3.719-3.749-.323 0-.63.055-.93.133a3.735 3.735 0 0 1 2.79 3.616zM70.233 21.572h1.86v93.727h-1.86zM5.158 21.572h1.859v93.727H5.158zM73.952 17.823h1.86v101.225h-1.86zM1.439 17.823h1.86v101.225h-1.86zM59.077 15.948h1.86v7.498h-1.86zM16.313 15.948h1.86v7.498h-1.86zM21.891 15.948h1.86v7.498h-1.86zM53.5 15.948h1.859v7.498h-1.86zM12.595 104.052h52.06v1.874h-52.06z" fill-opacity=".3"/>
    <path d="M20.032 45.004c-2.563 0-4.648-2.103-4.648-4.687 0-2.583 2.085-4.686 4.648-4.686 2.563 0 4.648 2.103 4.648 4.686 0 2.584-2.085 4.687-4.648 4.687zm0-7.499c-1.538 0-2.789 1.262-2.789 2.812 0 1.55 1.251 2.812 2.79 2.812 1.537 0 2.788-1.261 2.788-2.812 0-1.55-1.251-2.812-2.789-2.812zM64.655 108.738h-52.06a.933.933 0 0 1-.93-.937v-3.75c0-.517.416-.937.93-.937h52.06c.514 0 .93.42.93.938v3.749a.933.933 0 0 1-.93.937zm-51.13-1.874h50.2v-1.875h-50.2v1.875zM20.031 71.247a.918.918 0 0 1-.525-.165.942.942 0 0 1-.24-1.303l10.226-14.996a.926.926 0 0 1 1.293-.242c.423.294.53.877.24 1.303L20.797 70.841a.929.929 0 0 1-.767.406z"/>
    <path d="M34.91 63.068a.929.929 0 0 1-.768-.406l-4.65-6.817a.943.943 0 0 1 .24-1.304.925.925 0 0 1 1.292.242l4.65 6.817a.943.943 0 0 1-.24 1.304.92.92 0 0 1-.525.164zM33.046 71.247a.94.94 0 0 1-.777-1.45l15.805-24.369a.923.923 0 0 1 1.285-.271c.43.282.552.864.269 1.297L33.825 70.823a.927.927 0 0 1-.779.424z"/>
    <path d="M64.655 71.247c-.301 0-.599-.15-.777-.425L48.074 46.454a.939.939 0 0 1 .269-1.297.922.922 0 0 1 1.285.271l15.804 24.37a.937.937 0 0 1-.777 1.45z"/>
    <path d="M70.233 73.122H7.017a.933.933 0 0 1-.93-.938c0-.518.416-.937.93-.937h63.216c.514 0 .93.42.93.937a.933.933 0 0 1-.93.938zM64.655 86.244h-52.06a.933.933 0 0 1-.93-.938c0-.518.416-.937.93-.937h52.06c.514 0 .93.42.93.937a.933.933 0 0 1-.93.938zM64.655 89.993h-52.06a.933.933 0 0 1-.93-.938c0-.517.416-.937.93-.937h52.06c.514 0 .93.42.93.937a.933.933 0 0 1-.93.938zM51.64 93.742H25.61a.933.933 0 0 1-.93-.937c0-.518.416-.938.93-.938h26.03c.514 0 .93.42.93.938a.933.933 0 0 1-.93.937z"/>
    <path d="M75.811 119.985H1.44a.933.933 0 0 1-.93-.937V17.823c0-.518.416-.937.93-.937s.93.419.93.937V118.11H74.88V17.823c0-.518.416-.937.93-.937s.93.419.93.937v101.225a.933.933 0 0 1-.93.937z"/>
    <path d="M72.092 116.236H5.158a.933.933 0 0 1-.93-.937V21.572c0-.518.416-.937.93-.937.513 0 .93.419.93.937v92.79h65.075v-92.79c0-.518.415-.937.93-.937.513 0 .93.419.93.937v93.727a.933.933 0 0 1-.93.937z"/>
    <path d="M23.75 24.384h-7.436a.933.933 0 0 1-.93-.938v-7.498c0-.518.416-.937.93-.937h7.437c.513 0 .93.42.93.937v7.498a.933.933 0 0 1-.93.938zm-6.507-1.875h5.578v-5.623h-5.578v5.623zM60.937 24.384H53.5a.933.933 0 0 1-.93-.938v-7.498c0-.518.416-.937.93-.937h7.437c.514 0 .93.42.93.937v7.498a.933.933 0 0 1-.93.938zm-6.508-1.875h5.578v-5.623h-5.578v5.623z"/>
    <path d="M14.454 22.51H5.158a.933.933 0 0 1-.93-.938c0-.518.416-.937.93-.937h9.296c.514 0 .93.419.93.937a.933.933 0 0 1-.93.937zM72.092 22.51h-9.296a.933.933 0 0 1-.93-.938c0-.518.416-.937.93-.937h9.296c.514 0 .93.419.93.937a.933.933 0 0 1-.93.937zM51.64 22.51H25.61a.933.933 0 0 1-.93-.938c0-.518.416-.937.93-.937h26.03c.514 0 .93.419.93.937a.933.933 0 0 1-.93.937zM14.454 18.76H1.439a.933.933 0 0 1-.93-.937c0-.518.416-.937.93-.937h13.015c.514 0 .93.419.93.937a.933.933 0 0 1-.93.937zM51.64 18.76H25.61a.933.933 0 0 1-.93-.937c0-.518.416-.937.93-.937h26.03c.514 0 .93.419.93.937a.933.933 0 0 1-.93.937zM75.811 18.76H62.796a.933.933 0 0 1-.93-.937c0-.518.416-.937.93-.937h13.015c.514 0 .93.419.93.937a.933.933 0 0 1-.93.937zM20.032 16.417a.933.933 0 0 1-.93-.937V.952c0-.518.416-.937.93-.937s.93.42.93.937V15.48a.933.933 0 0 1-.93.937zM57.218 16.886a.933.933 0 0 1-.93-.938V.952c0-.518.416-.937.93-.937s.93.42.93.937v14.996a.933.933 0 0 1-.93.938z"/>
  </g>
</svg>
